<?xml version="1.0" encoding="UTF-8" standalone="no"?>
<svg xmlns="http://www.w3.org/2000/svg"
     xmlns:svg="http://www.w3.org/2000/svg"
     version="1.1"
     width="1.98611in" height="1.94444in"
     viewBox="0 0 143 140">
  <path id="path1"
        fill="black" stroke="none"
        d="M 15.86,10.48
           C 43.23,6.31 49.46,43.52 24.62,49.74
             11.44,53.04 -1.92,40.55 0.31,27.19
             1.81,18.22 7.72,13.32 15.86,10.48 Z
           M 118.09,10.48
           C 145.46,6.31 151.69,43.52 126.85,49.74
             113.67,53.04 100.31,40.55 102.54,27.19
             104.03,18.22 109.94,13.32 118.09,10.48 Z
           M 66.97,99.56
           C 94.35,95.40 100.58,132.60 75.74,138.82
             62.55,142.12 49.20,129.64 51.42,116.27
             52.92,107.31 58.83,102.40 66.97,99.56 Z
           M 49.14,119.19
           C 49.14,119.19 49.14,114.86 49.14,114.86
             49.14,114.86 40.69,114.86 40.69,114.86
             40.69,114.86 7.10,60.18 7.10,60.18
             7.10,60.18 12.44,52.56 12.44,52.56
             12.44,52.56 9.20,50.33 9.20,50.33
             9.20,50.33 2.72,60.09 2.72,60.09
             2.72,60.09 37.77,119.19 37.77,119.19
             37.77,119.19 49.14,119.19 49.14,119.19 Z
           M 38.34,0.96
           C 38.34,0.96 104.14,0.96 104.14,0.96
             104.14,0.96 110.62,9.20 110.62,9.20
             110.62,9.20 106.47,11.95 106.47,11.95
             106.47,11.95 101.95,5.35 101.95,5.35
             101.95,5.35 40.78,5.29 40.78,5.29
             40.78,5.29 34.74,12.50 34.74,12.50
             34.74,12.50 31.20,9.26 31.20,9.26
             31.20,9.26 38.34,0.96 38.34,0.96 Z
           M 93.54,119.19
           C 93.54,119.19 93.54,114.86 93.54,114.86
             93.54,114.86 102.02,114.86 102.02,114.86
             102.02,114.86 135.61,60.18 135.61,60.18
             135.61,60.18 130.27,52.56 130.27,52.56
             130.27,52.56 133.51,50.33 133.51,50.33
             133.51,50.33 139.99,60.09 139.99,60.09
             139.99,60.09 104.94,119.19 104.94,119.19
             104.94,119.19 93.54,119.19 93.54,119.19 Z
           M 49.18,119.16" />
</svg>
